# Wavefront OBJ file automatically generated by Tiled2Unity

# Vertices (Count = 54)
v 0 -32 0
v -32 -32 0
v -32 0 0
v 0 0 0
v -64 -32 0
v -64 0 0
v -96 -32 0
v -96 0 0
v -128 -32 0
v -128 0 0
v -160 -32 0
v -160 0 0
v -192 -32 0
v -192 0 0
v -224 -32 0
v -224 0 0
v -256 -32 0
v -256 0 0
v 0 -64 0
v -32 -64 0
v -64 -64 0
v -96 -64 0
v -128 -64 0
v -160 -64 0
v -192 -64 0
v -224 -64 0
v -256 -64 0
v 0 -96 0
v -32 -96 0
v -64 -96 0
v -96 -96 0
v -128 -96 0
v -160 -96 0
v -192 -96 0
v -224 -96 0
v -256 -96 0
v 0 -128 0
v -32 -128 0
v -64 -128 0
v -96 -128 0
v -128 -128 0
v -160 -128 0
v -192 -128 0
v -224 -128 0
v -256 -128 0
v 0 -160 0
v -32 -160 0
v -64 -160 0
v -96 -160 0
v -128 -160 0
v -160 -160 0
v -192 -160 0
v -224 -160 0
v -256 -160 0

# Texture Coorindates (Count = 24)
vt 0.0001220703 0.7743156
vt 0.1248779 0.7743156
vt 0.1248779 0.8063295
vt 0.0001220703 0.8063295
vt 0.1251221 0.7743156
vt 0.2498779 0.7743156
vt 0.2498779 0.8063295
vt 0.1251221 0.8063295
vt 0.3751221 0.7743156
vt 0.4998779 0.7743156
vt 0.4998779 0.8063295
vt 0.3751221 0.8063295
vt 0.6251221 0.8710898
vt 0.7498779 0.8710898
vt 0.7498779 0.9031037
vt 0.6251221 0.9031037
vt 0.6251221 0.8388317
vt 0.7498779 0.8388317
vt 0.7498779 0.8708457
vt 0.6251221 0.8708457
vt 0.5001221 0.8388317
vt 0.6248779 0.8388317
vt 0.6248779 0.8708457
vt 0.5001221 0.8708457

# Normal
vn 0 0 -1

# Groups (Count = 2)
g mesh_[00]_[00]
f  1/1/1  2/2/1  3/3/1  4/4/1 
f  2/1/1  5/2/1  6/3/1  3/4/1 
f  5/1/1  7/2/1  8/3/1  6/4/1 
f  7/1/1  9/2/1  10/3/1  8/4/1 
f  9/1/1  11/2/1  12/3/1  10/4/1 
f  11/1/1  13/2/1  14/3/1  12/4/1 
f  13/1/1  15/2/1  16/3/1  14/4/1 
f  15/1/1  17/2/1  18/3/1  16/4/1 
f  19/1/1  20/2/1  2/3/1  1/4/1 
f  20/1/1  21/2/1  5/3/1  2/4/1 
f  21/1/1  22/2/1  7/3/1  5/4/1 
f  22/1/1  23/2/1  9/3/1  7/4/1 
f  23/1/1  24/2/1  11/3/1  9/4/1 
f  24/1/1  25/2/1  13/3/1  11/4/1 
f  25/1/1  26/2/1  15/3/1  13/4/1 
f  26/1/1  27/2/1  17/3/1  15/4/1 
f  28/1/1  29/2/1  20/3/1  19/4/1 
f  29/1/1  30/2/1  21/3/1  20/4/1 
f  30/1/1  31/2/1  22/3/1  21/4/1 
f  31/1/1  32/2/1  23/3/1  22/4/1 
f  32/1/1  33/2/1  24/3/1  23/4/1 
f  33/1/1  34/2/1  25/3/1  24/4/1 
f  34/1/1  35/2/1  26/3/1  25/4/1 
f  35/1/1  36/2/1  27/3/1  26/4/1 
f  37/5/1  38/6/1  29/7/1  28/8/1 
f  38/5/1  39/6/1  30/7/1  29/8/1 
f  39/5/1  40/6/1  31/7/1  30/8/1 
f  40/5/1  41/6/1  32/7/1  31/8/1 
f  41/5/1  42/6/1  33/7/1  32/8/1 
f  42/5/1  43/6/1  34/7/1  33/8/1 
f  43/5/1  44/6/1  35/7/1  34/8/1 
f  44/5/1  45/6/1  36/7/1  35/8/1 
f  46/9/1  47/10/1  38/11/1  37/12/1 
f  47/9/1  48/10/1  39/11/1  38/12/1 
f  48/9/1  49/10/1  40/11/1  39/12/1 
f  49/9/1  50/10/1  41/11/1  40/12/1 
f  50/9/1  51/10/1  42/11/1  41/12/1 
f  51/9/1  52/10/1  43/11/1  42/12/1 
f  52/9/1  53/10/1  44/11/1  43/12/1 
f  53/9/1  54/10/1  45/11/1  44/12/1 
g mesh_[01]_[00]
f  37/13/1  38/14/1  29/15/1  28/16/1 
f  38/13/1  39/14/1  30/15/1  29/16/1 
f  39/13/1  40/14/1  31/15/1  30/16/1 
f  40/13/1  41/14/1  32/15/1  31/16/1 
f  41/13/1  42/14/1  33/15/1  32/16/1 
f  42/13/1  43/14/1  34/15/1  33/16/1 
f  43/13/1  44/14/1  35/15/1  34/16/1 
f  44/13/1  45/14/1  36/15/1  35/16/1 
f  46/17/1  47/18/1  38/19/1  37/20/1 
f  47/17/1  48/18/1  39/19/1  38/20/1 
f  48/21/1  49/22/1  40/23/1  39/24/1 
f  49/17/1  50/18/1  41/19/1  40/20/1 
f  50/17/1  51/18/1  42/19/1  41/20/1 
f  51/17/1  52/18/1  43/19/1  42/20/1 
f  52/21/1  53/22/1  44/23/1  43/24/1 
f  53/17/1  54/18/1  45/19/1  44/20/1 
